<svg width="32" height="32" viewBox="0 0 32 32" fill="none" xmlns="http://www.w3.org/2000/svg">
<g clip-path="url(#clip0_12064_962)">
<path d="M31.4643 15.9999C31.4643 24.8703 24.0029 31.9929 15.012 31.4361C7.30854 30.9588 1.03867 24.6889 0.561874 16.9855C0.00454026 7.99454 7.12721 0.533203 15.9976 0.533203C18.4339 0.533203 20.7405 1.09534 22.7923 2.10174C23.3421 2.3716 23.5437 3.0564 23.2403 3.58867L23.2381 3.5924C22.9576 4.08414 22.3453 4.26707 21.8376 4.01694C19.8013 3.01427 17.4733 2.52627 15.0163 2.70174C8.56294 3.162 3.29254 8.338 2.71814 14.7823C2.00347 22.8031 8.43121 29.5353 16.3517 29.3284C23.1347 29.1513 28.7965 23.7721 29.2931 17.0052C29.4221 15.2473 29.2104 13.5455 28.7069 11.9764C28.5475 11.4788 28.7795 10.9417 29.2467 10.7081C29.8301 10.4164 30.5453 10.7081 30.7432 11.3295C31.2115 12.802 31.4643 14.3711 31.4643 15.9999Z" fill="#AEE090"/>
<path d="M8.21885 11.9851L16.653 23.3968C17.2898 24.2587 18.5858 24.184 19.1228 23.2549L31.3106 2.15732C31.9452 1.05865 30.4972 -0.0458835 29.6338 0.878916L16.9362 14.48L9.56871 10.4021C8.57298 9.85118 7.53831 11.064 8.21885 11.9851Z" fill="#6BB577"/>
</g>
<defs>
<clipPath id="clip0_12064_962">
<rect width="32" height="32" fill="white"/>
</clipPath>
</defs>
</svg>
