<svg width="48" height="48" viewBox="0 0 48 48" fill="none" xmlns="http://www.w3.org/2000/svg">
<path d="M8.77313 5.18164C7.02431 5.18164 5.60156 6.60392 5.60156 8.35198C5.60156 10.1 7.02431 11.5223 8.77313 11.5223C10.5233 11.5223 11.9473 10.1 11.9473 8.35198C11.9473 6.60392 10.5233 5.18164 8.77313 5.18164ZM8.77313 9.63158C8.06691 9.63158 7.49241 9.05755 7.49241 8.35198C7.49241 7.64642 8.06691 7.07248 8.77313 7.07248C9.48075 7.07248 10.0566 7.64652 10.0566 8.35208C10.0566 9.05764 9.48075 9.63158 8.77313 9.63158Z" fill="white"/>
<path d="M36.5008 5.18164H28.1169C26.3681 5.18164 24.9453 6.60392 24.9453 8.35198C24.9453 10.1 26.3681 11.5223 28.1169 11.5223H36.5008C38.2497 11.5223 39.6724 10.1 39.6724 8.35198C39.6724 6.60392 38.2497 5.18164 36.5008 5.18164ZM36.5008 9.63158H28.1169C27.4107 9.63158 26.8362 9.05755 26.8362 8.35198C26.8362 7.64642 27.4107 7.07239 28.1169 7.07239H36.5008C37.2071 7.07239 37.7816 7.64642 37.7816 8.35198C37.7816 9.05755 37.2071 9.63158 36.5008 9.63158Z" fill="white"/>
<path d="M16.9919 5.18164C15.2431 5.18164 13.8203 6.60392 13.8203 8.35198C13.8203 10.1 15.2431 11.5223 16.9919 11.5223C18.7421 11.5223 20.1661 10.1 20.1661 8.35198C20.1661 6.60392 18.7421 5.18164 16.9919 5.18164ZM16.9919 9.63158C16.2857 9.63158 15.7112 9.05755 15.7112 8.35198C15.7112 7.64642 16.2858 7.07239 16.9919 7.07239C17.6995 7.07239 18.2753 7.64642 18.2753 8.35198C18.2753 9.05755 17.6995 9.63158 16.9919 9.63158Z" fill="white"/>
<path d="M15.4472 20.8543C14.9395 20.7327 14.4292 21.0461 14.3079 21.5541L12.4323 29.4026C12.311 29.9105 12.6243 30.4206 13.1321 30.5419C13.206 30.5595 13.2799 30.568 13.3527 30.568C13.7801 30.568 14.1677 30.2761 14.2713 29.8421L16.1469 21.9936C16.2683 21.4857 15.955 20.9757 15.4472 20.8543Z" fill="white"/>
<path d="M18.9182 29.6193C19.0984 29.7798 19.323 29.8587 19.5467 29.8587C19.8071 29.8587 20.0663 29.7519 20.2531 29.5421L22.9042 26.5661C23.3416 26.0792 23.3416 25.3166 22.9069 24.8328L20.253 21.8537C19.9056 21.4637 19.3079 21.4294 18.9182 21.7765C18.5282 22.1239 18.4937 22.7215 18.8411 23.1114L21.1452 25.6978L18.8411 28.2844C18.4938 28.6744 18.5283 29.272 18.9182 29.6193Z" fill="white"/>
<path d="M9.66603 21.7765C9.27603 21.4292 8.67856 21.464 8.33122 21.8537L5.68044 24.8294C5.24244 25.3164 5.24244 26.0794 5.67744 26.563L8.33131 29.5421C8.51816 29.7519 8.77728 29.8587 9.03772 29.8587C9.26141 29.8587 9.48613 29.7798 9.66622 29.6193C10.0562 29.2719 10.0907 28.6743 9.74338 28.2845L7.43928 25.698L9.74338 23.1114C10.0905 22.7214 10.056 22.1238 9.66603 21.7765Z" fill="white"/>
<path d="M45.8804 31.8315H45.5294C45.3456 31.236 45.1073 30.6611 44.8167 30.1117L45.0672 29.8604C45.4672 29.4628 45.688 28.9319 45.6889 28.3655C45.6897 27.7977 45.4697 27.2647 45.0692 26.8643L44.5811 26.3765V6.23897C44.5811 3.41906 42.5912 1.125 40.1451 1.125H4.43606C1.98994 1.125 0 3.41906 0 6.23897V32.6627C0 35.4826 1.98994 37.7767 4.43606 37.7767H9.98287C10.505 37.7767 10.9282 37.3534 10.9282 36.8313C10.9282 36.3092 10.505 35.8859 9.98287 35.8859H4.43606C3.05644 35.8859 1.89084 34.4098 1.89084 32.6628V15.5108H42.6902V25.0644C42.5825 25.0478 42.4733 25.037 42.3622 25.037C42.3611 25.037 42.36 25.037 42.359 25.037C41.7925 25.0379 41.2616 25.2584 40.8671 25.6551L40.6116 25.9095C40.0507 25.6132 39.4665 25.3721 38.8642 25.1881V24.8513C38.8642 23.6828 37.9133 22.7323 36.7446 22.7323H35.0337C33.8664 22.7323 32.9168 23.6828 32.9168 24.8513V25.2112C32.3258 25.3969 31.7552 25.6358 31.2097 25.9261L30.9649 25.682C30.5672 25.2823 30.0362 25.0616 29.4697 25.0608C29.4687 25.0608 29.4677 25.0608 29.4666 25.0608C28.9 25.0608 28.3681 25.2806 27.9684 25.68L26.7597 26.8882C26.3592 27.2885 26.1392 27.8216 26.14 28.3893C26.1409 28.9557 26.3616 29.4866 26.7586 29.8811L27.0197 30.143C26.7363 30.6839 26.5035 31.2482 26.3234 31.8313H25.9643C24.797 31.8313 23.8474 32.7806 23.8474 33.9476V35.6602C23.8474 35.7363 23.8516 35.8115 23.8595 35.8855H18.3587C17.8366 35.8855 17.4133 36.3088 17.4133 36.8309C17.4133 37.353 17.8366 37.7763 18.3587 37.7763H25.9642H26.327C26.5098 38.3649 26.7461 38.9337 27.0344 39.4782L26.7789 39.7326C25.9565 40.5594 25.9572 41.9018 26.7809 42.7249L27.9903 43.9338C28.388 44.3334 28.919 44.5541 29.4854 44.555H29.4885C30.0551 44.555 30.5871 44.3351 30.9867 43.9357L31.2399 43.6826C31.7893 43.9722 32.3605 44.2088 32.9485 44.3906V44.7565C32.9485 45.925 33.8981 46.8756 35.0655 46.8756H36.779C37.9462 46.8756 38.8958 45.925 38.8958 44.7565V44.3929C39.4894 44.2098 40.0629 43.9722 40.6117 43.6825L40.8637 43.9337C41.2613 44.3334 41.7922 44.554 42.3587 44.555H42.362C42.9285 44.555 43.4604 44.3351 43.8608 43.935L45.0669 42.7268C45.467 42.3293 45.6877 41.7983 45.6886 41.2319C45.6894 40.6642 45.4694 40.1311 45.0688 39.7307L44.8165 39.4785C45.1042 38.9335 45.3404 38.3644 45.5229 37.7764H45.8802C47.049 37.7764 47.9998 36.8271 47.9998 35.6602V33.9476C48 32.7808 47.0492 31.8315 45.8804 31.8315ZM1.89084 13.62V6.23897C1.89084 4.49194 3.05644 3.01584 4.43606 3.01584H40.1451C41.5247 3.01584 42.6903 4.49194 42.6903 6.23897V13.6201L1.89084 13.62ZM46.1092 35.6603C46.1092 35.7804 46.0023 35.8857 45.8803 35.8857H44.7992C44.3584 35.8857 43.9761 36.1903 43.8776 36.62C43.6734 37.5111 43.3227 38.3561 42.8351 39.1319C42.6003 39.5055 42.6551 39.9919 42.9673 40.3038L43.7323 41.0683C43.7895 41.1255 43.7979 41.1937 43.7979 41.2294C43.7978 41.2719 43.7868 41.3337 43.7316 41.3885L42.5237 42.5985C42.4664 42.6557 42.3981 42.6643 42.3621 42.6643C42.362 42.6643 42.3619 42.6643 42.3619 42.6643C42.3189 42.6643 42.257 42.6532 42.2016 42.5974L41.4337 41.8327C41.1215 41.5218 40.636 41.4679 40.2632 41.7023C39.4863 42.191 38.6377 42.5423 37.7407 42.7463C37.3105 42.8444 37.0052 43.2269 37.0052 43.6683V44.7568C37.0052 44.8783 36.8995 44.985 36.7792 44.985H35.0657C34.9452 44.985 34.8396 44.8784 34.8396 44.7568V43.6656C34.8396 43.2238 34.5336 42.8408 34.1027 42.7434C33.2172 42.5432 32.3701 42.1925 31.585 41.7012C31.4303 41.6044 31.2565 41.5571 31.0837 41.5571C30.8395 41.5571 30.5975 41.6515 30.4151 41.834L29.6502 42.5985C29.5929 42.6557 29.5246 42.6643 29.4886 42.6643C29.4885 42.6643 29.4884 42.6643 29.4883 42.6643C29.4455 42.6643 29.3834 42.6532 29.3291 42.5986L28.1178 41.3878C28.0329 41.3031 28.0339 41.1529 28.1167 41.0696L28.8844 40.305C29.1981 39.9926 29.2529 39.5046 29.0166 39.1303C28.5282 38.3571 28.177 37.5126 27.9727 36.6203C27.8742 36.1906 27.4919 35.8859 27.051 35.8859H25.9644C25.8419 35.8859 25.7383 35.7827 25.7383 35.6605V33.948C25.7383 33.8258 25.8419 33.7225 25.9644 33.7225H27.0483C27.4896 33.7225 27.8722 33.4172 27.9702 32.987C28.172 32.1004 28.5187 31.2593 29.0006 30.487C29.2333 30.1142 29.1784 29.6302 28.868 29.3189L28.0945 28.5432C28.042 28.4911 28.031 28.4293 28.0309 28.3867C28.0309 28.3511 28.0393 28.2829 28.0965 28.2258L29.3051 27.0177C29.3624 26.9605 29.4307 26.9519 29.4667 26.9519H29.467C29.5099 26.952 29.5719 26.9631 29.6273 27.0188L30.3897 27.7782C30.7029 28.0901 31.1902 28.1436 31.5631 27.9069C32.3356 27.4172 33.1817 27.0624 34.0777 26.8527C34.5052 26.7527 34.8076 26.3713 34.8076 25.9322V24.8516C34.8076 24.728 34.9111 24.6234 35.0336 24.6234H36.7445C36.8685 24.6234 36.9733 24.728 36.9733 24.8516V25.9163C36.9733 26.3592 37.2808 26.7427 37.7133 26.839C38.6128 27.0394 39.471 27.3932 40.264 27.8907C40.6367 28.1243 41.1217 28.0703 41.4337 27.7597L42.2046 26.9918C42.2569 26.9392 42.3188 26.9282 42.3617 26.9281H42.362C42.398 26.9281 42.4663 26.9367 42.5235 26.9939L43.7322 28.2019C43.7894 28.2591 43.7978 28.3273 43.7978 28.3629C43.7977 28.4055 43.7867 28.4673 43.7311 28.5225L42.966 29.2898C42.6545 29.6023 42.6005 30.0887 42.8359 30.4618C43.3253 31.2378 43.6775 32.0875 43.8826 32.9873C43.9807 33.4175 44.3632 33.7226 44.8044 33.7226H45.8803C46.0022 33.7226 46.1092 33.8281 46.1092 33.9481V35.6603Z" fill="white"/>
<path d="M35.9261 29.0293C32.7403 29.0293 30.1484 31.62 30.1484 34.8044C30.1484 37.9873 32.7403 40.5769 35.9261 40.5769C39.1105 40.5769 41.7011 37.9874 41.7011 34.8044C41.7011 31.6201 39.1105 29.0293 35.9261 29.0293ZM35.9261 38.686C33.7829 38.686 32.0393 36.9447 32.0393 34.8044C32.0393 32.6626 33.7829 30.9201 35.9261 30.9201C38.0678 30.9201 39.8102 32.6626 39.8102 34.8044C39.8102 36.9447 38.0677 38.686 35.9261 38.686Z" fill="white"/>
<path d="M14.1983 35.8848H14.1797C13.6577 35.8848 13.2344 36.308 13.2344 36.8301C13.2344 37.3522 13.6577 37.7755 14.1797 37.7755H14.1983C14.7204 37.7755 15.1437 37.3522 15.1437 36.8301C15.1437 36.308 14.7204 35.8848 14.1983 35.8848Z" fill="white"/>
</svg>
