<svg width="40" height="40" viewBox="0 0 40 40" fill="none" xmlns="http://www.w3.org/2000/svg">
<path d="M11.6719 21.668V36.668C11.6719 37.11 11.4963 37.5339 11.1837 37.8465C10.8712 38.159 10.4472 38.3346 10.0052 38.3346H3.33854C2.89651 38.3346 2.47259 38.159 2.16003 37.8465C1.84747 37.5339 1.67188 37.11 1.67188 36.668V21.668C1.67187 21.2259 1.84747 20.802 2.16003 20.4895C2.47259 20.1769 2.89651 20.0013 3.33854 20.0013H10.0052C10.4472 20.0013 10.8712 20.1769 11.1837 20.4895C11.4963 20.802 11.6719 21.2259 11.6719 21.668ZM23.3385 1.66797H16.6719C16.2298 1.66797 15.8059 1.84356 15.4934 2.15612C15.1808 2.46868 15.0052 2.89261 15.0052 3.33464V36.668C15.0052 37.11 15.1808 37.5339 15.4934 37.8465C15.8059 38.159 16.2298 38.3346 16.6719 38.3346H23.3385C23.7806 38.3346 24.2045 38.159 24.5171 37.8465C24.8296 37.5339 25.0052 37.11 25.0052 36.668V3.33464C25.0052 2.89261 24.8296 2.46868 24.5171 2.15612C24.2045 1.84356 23.7806 1.66797 23.3385 1.66797ZM36.6719 10.0013H30.0052C29.5632 10.0013 29.1393 10.1769 28.8267 10.4895C28.5141 10.802 28.3385 11.2259 28.3385 11.668V36.668C28.3385 37.11 28.5141 37.5339 28.8267 37.8465C29.1393 38.159 29.5632 38.3346 30.0052 38.3346H36.6719C37.1139 38.3346 37.5378 38.159 37.8504 37.8465C38.1629 37.5339 38.3385 37.11 38.3385 36.668V11.668C38.3385 11.2259 38.1629 10.802 37.8504 10.4895C37.5378 10.1769 37.1139 10.0013 36.6719 10.0013Z" fill="white"/>
</svg>
