<svg width="48" height="48" viewBox="0 0 48 48" fill="none" xmlns="http://www.w3.org/2000/svg">
<path d="M46.7074 34.3634L35.9726 23.626C37.9869 19.0532 37.125 13.5087 33.3856 9.76839C28.5136 4.89524 20.6274 4.89458 15.7548 9.76839C10.8942 14.6301 10.8942 22.5407 15.7548 27.4024C19.6173 31.2658 25.2778 32.0014 29.7967 29.9123L40.4766 40.5948C42.1985 42.317 44.9859 42.3172 46.7078 40.5944C48.425 38.8765 48.4248 36.0813 46.7074 34.3634ZM17.7438 25.4138C13.9795 21.6486 13.9795 15.5223 17.7438 11.757C21.5165 7.98341 27.6232 7.98275 31.3965 11.757C35.1608 15.5223 35.1608 21.6486 31.3965 25.4138C27.6237 29.1875 21.517 29.1881 17.7438 25.4138ZM44.7185 38.6061C44.096 39.2289 43.0883 39.2292 42.4656 38.6062L32.2619 28.4001C33.1007 27.7399 33.8482 26.9818 34.4972 26.1284L44.7183 36.3519C45.3396 36.9734 45.3397 37.9846 44.7185 38.6061Z" fill="white"/>
<path d="M1.40631 22.9647H7.40302C8.17968 22.9647 8.80933 22.3351 8.80933 21.5584C8.80933 20.7818 8.17968 20.1521 7.40302 20.1521H1.40631C0.629653 20.1521 0 20.7818 0 21.5584C0 22.3351 0.629653 22.9647 1.40631 22.9647Z" fill="white"/>
<path d="M1.40631 28.965H9.65181C10.4285 28.965 11.0581 28.3353 11.0581 27.5587C11.0581 26.782 10.4285 26.1523 9.65181 26.1523H1.40631C0.629653 26.1523 0 26.782 0 27.5587C0 28.3353 0.629653 28.965 1.40631 28.965Z" fill="white"/>
<path d="M1.40631 34.965H15.6486C16.4253 34.965 17.0549 34.3353 17.0549 33.5587C17.0549 32.782 16.4253 32.1523 15.6486 32.1523H1.40631C0.629653 32.1523 0 32.782 0 33.5587C0 34.3353 0.629653 34.965 1.40631 34.965Z" fill="white"/>
<path d="M32.1398 38.1523H1.40631C0.629653 38.1523 0 38.782 0 39.5587C0 40.3353 0.629653 40.965 1.40631 40.965H32.1398C32.9164 40.965 33.5461 40.3353 33.5461 39.5587C33.5461 38.782 32.9164 38.1523 32.1398 38.1523Z" fill="white"/>
</svg>
