<svg width="48" height="48" viewBox="0 0 48 48" fill="none" xmlns="http://www.w3.org/2000/svg">
<g clip-path="url(#clip0_12064_1032)">
<path d="M43.0158 42.7848L39.1158 38.8728C40.0339 36.9541 40.2439 34.7725 39.7088 32.7138C39.1737 30.6552 37.9279 28.8521 36.1917 27.6233C34.4554 26.3945 32.3406 25.8192 30.2212 25.9991C28.1017 26.1791 26.1142 27.1026 24.6099 28.6065C23.1057 30.1104 22.1817 32.0977 22.0013 34.2171C21.8208 36.3365 22.3956 38.4514 23.624 40.188C24.8524 41.9245 26.6552 43.1707 28.7137 43.7063C30.7723 44.2419 32.9539 44.0324 34.8728 43.1148L38.7838 47.0148C39.0618 47.2929 39.3918 47.5136 39.755 47.6642C40.1182 47.8148 40.5076 47.8924 40.9008 47.8925C41.294 47.8927 41.6834 47.8154 42.0467 47.665C42.41 47.5147 42.7402 47.2942 43.0183 47.0163C43.2965 46.7383 43.5171 46.4083 43.6677 46.0451C43.8183 45.6819 43.8959 45.2926 43.8961 44.8994C43.8962 44.5061 43.8189 44.1168 43.6686 43.7534C43.5182 43.3901 43.2978 43.0599 43.0198 42.7818L43.0158 42.7848ZM26.0478 39.9508C25.0689 38.9718 24.4023 37.7245 24.1323 36.3667C23.8622 35.0088 24.0009 33.6014 24.5307 32.3223C25.0606 31.0433 25.9578 29.9501 27.1089 29.181C28.26 28.4118 29.6134 28.0013 30.9978 28.0013C32.3823 28.0013 33.7356 28.4118 34.8867 29.181C36.0379 29.9501 36.9351 31.0433 37.4649 32.3223C37.9948 33.6014 38.1334 35.0088 37.8634 36.3667C37.5933 37.7245 36.9267 38.9718 35.9478 39.9508C34.6341 41.262 32.8539 41.9984 30.9978 41.9984C29.1418 41.9984 27.3615 41.262 26.0478 39.9508ZM41.5978 45.6008C41.4106 45.7858 41.158 45.8896 40.8948 45.8896C40.6316 45.8896 40.379 45.7858 40.1918 45.6008L36.6108 42.0278C37.1362 41.6141 37.6108 41.1398 38.0248 40.6148L41.5978 44.2008C41.6905 44.2929 41.7641 44.4024 41.8143 44.5231C41.8645 44.6437 41.8904 44.7731 41.8904 44.9038C41.8904 45.0345 41.8645 45.1639 41.8143 45.2845C41.7641 45.4052 41.6905 45.5147 41.5978 45.6068V45.6008Z" fill="white"/>
<path d="M25 44H12C11.2044 44 10.4413 43.684 9.87868 43.1213C9.31607 42.5587 9 41.7957 9 41V7.00002C9 6.20437 9.31607 5.44131 9.87868 4.8787C10.4413 4.31609 11.2044 4.00002 12 4.00002H29.38C29.5884 4.00056 29.7963 4.02301 30 4.06702V10C30 10.7957 30.3161 11.5587 30.8787 12.1213C31.4413 12.684 32.2044 13 33 13H38.923C38.9724 13.2136 38.9982 13.4319 39 13.651V27C39 27.2652 39.1054 27.5196 39.2929 27.7071C39.4804 27.8947 39.7348 28 40 28C40.2652 28 40.5196 27.8947 40.7071 27.7071C40.8946 27.5196 41 27.2652 41 27V13.651C41.0014 12.9962 40.8734 12.3476 40.6236 11.7424C40.3737 11.1371 40.0069 10.5872 39.544 10.124L32.924 3.47302C32.4606 3.00461 31.9085 2.63313 31.3001 2.38024C30.6916 2.12735 30.0389 1.9981 29.38 2.00002H12C10.6744 2.00161 9.40356 2.5289 8.46622 3.46624C7.52888 4.40358 7.00159 5.67443 7 7.00002V41C7.00159 42.3256 7.52888 43.5965 8.46622 44.5338C9.40356 45.4711 10.6744 45.9984 12 46H25C25.2652 46 25.5196 45.8947 25.7071 45.7071C25.8946 45.5196 26 45.2652 26 45C26 44.7348 25.8946 44.4805 25.7071 44.2929C25.5196 44.1054 25.2652 44 25 44ZM37.594 11H33C32.7348 11 32.4804 10.8947 32.2929 10.7071C32.1054 10.5196 32 10.2652 32 10V5.38002L37.594 11Z" fill="white"/>
<path d="M14 13H25C25.2652 13 25.5196 12.8946 25.7071 12.7071C25.8946 12.5196 26 12.2652 26 12C26 11.7348 25.8946 11.4804 25.7071 11.2929C25.5196 11.1054 25.2652 11 25 11H14C13.7348 11 13.4804 11.1054 13.2929 11.2929C13.1054 11.4804 13 11.7348 13 12C13 12.2652 13.1054 12.5196 13.2929 12.7071C13.4804 12.8946 13.7348 13 14 13Z" fill="white"/>
<path d="M34 17H17C16.7348 17 16.4804 17.1054 16.2929 17.2929C16.1054 17.4804 16 17.7348 16 18C16 18.2652 16.1054 18.5196 16.2929 18.7071C16.4804 18.8946 16.7348 19 17 19H34C34.2652 19 34.5196 18.8946 34.7071 18.7071C34.8946 18.5196 35 18.2652 35 18C35 17.7348 34.8946 17.4804 34.7071 17.2929C34.5196 17.1054 34.2652 17 34 17Z" fill="white"/>
<path d="M35 23C35 22.7348 34.8946 22.4804 34.7071 22.2929C34.5196 22.1054 34.2652 22 34 22H14C13.7348 22 13.4804 22.1054 13.2929 22.2929C13.1054 22.4804 13 22.7348 13 23C13 23.2652 13.1054 23.5196 13.2929 23.7071C13.4804 23.8946 13.7348 24 14 24H34C34.2652 24 34.5196 23.8946 34.7071 23.7071C34.8946 23.5196 35 23.2652 35 23Z" fill="white"/>
<path d="M21 28C21 27.7348 20.8946 27.4804 20.7071 27.2929C20.5196 27.1054 20.2652 27 20 27H14C13.7348 27 13.4804 27.1054 13.2929 27.2929C13.1054 27.4804 13 27.7348 13 28C13 28.2652 13.1054 28.5196 13.2929 28.7071C13.4804 28.8946 13.7348 29 14 29H20C20.2652 29 20.5196 28.8946 20.7071 28.7071C20.8946 28.5196 21 28.2652 21 28Z" fill="white"/>
<path d="M14 34H18C18.2652 34 18.5196 33.8946 18.7071 33.7071C18.8946 33.5196 19 33.2652 19 33C19 32.7348 18.8946 32.4804 18.7071 32.2929C18.5196 32.1054 18.2652 32 18 32H14C13.7348 32 13.4804 32.1054 13.2929 32.2929C13.1054 32.4804 13 32.7348 13 33C13 33.2652 13.1054 33.5196 13.2929 33.7071C13.4804 33.8946 13.7348 34 14 34Z" fill="white"/>
<path d="M14 39H19C19.2652 39 19.5196 38.8946 19.7071 38.7071C19.8946 38.5196 20 38.2652 20 38C20 37.7348 19.8946 37.4804 19.7071 37.2929C19.5196 37.1054 19.2652 37 19 37H14C13.7348 37 13.4804 37.1054 13.2929 37.2929C13.1054 37.4804 13 37.7348 13 38C13 38.2652 13.1054 38.5196 13.2929 38.7071C13.4804 38.8946 13.7348 39 14 39Z" fill="white"/>
<path d="M31 38C30.2044 38 29.4413 37.6839 28.8787 37.1213C28.3161 36.5587 28 35.7956 28 35C28 34.7348 27.8946 34.4804 27.7071 34.2929C27.5196 34.1054 27.2652 34 27 34C26.7348 34 26.4804 34.1054 26.2929 34.2929C26.1054 34.4804 26 34.7348 26 35C26.0016 36.3256 26.5289 37.5964 27.4662 38.5338C28.4036 39.4711 29.6744 39.9984 31 40C31.2652 40 31.5196 39.8946 31.7071 39.7071C31.8946 39.5196 32 39.2652 32 39C32 38.7348 31.8946 38.4804 31.7071 38.2929C31.5196 38.1054 31.2652 38 31 38Z" fill="white"/>
</g>
<defs>
<clipPath id="clip0_12064_1032">
<rect width="48" height="48" fill="white"/>
</clipPath>
</defs>
</svg>
