<svg width="40" height="40" viewBox="0 0 40 40" fill="none" xmlns="http://www.w3.org/2000/svg">
<g clip-path="url(#clip0_12064_1149)">
<path d="M5.88327 31.7653C8.1537 31.7653 10.0009 29.9181 10.0009 27.6476C10.0009 25.786 8.75857 24.2096 7.05974 23.7021V21.177H18.8244V23.7021C17.1255 24.2096 15.8833 25.7859 15.8833 27.6476C15.8833 29.9181 17.7305 31.7653 20.0009 31.7653C22.2714 31.7653 24.1186 29.9181 24.1186 27.6476C24.1186 25.786 22.8762 24.2096 21.1774 23.7021V21.177H32.9421V23.7021C31.2432 24.2096 30.0009 25.7859 30.0009 27.6476C30.0009 29.9181 31.8481 31.7653 34.1186 31.7653C36.389 31.7653 38.2362 29.9181 38.2362 27.6476C38.2362 25.786 36.9939 24.2096 35.295 23.7021V18.8241H28.2362V16.471L32.9421 16.4708V12.9417C32.9421 11.3979 32.3434 9.99192 31.3671 8.94141C28.909 11.139 25.2087 11.1375 22.7524 8.94141C21.7761 9.99192 21.1774 11.3979 21.1774 12.9417V16.4711L25.8833 16.471V18.8241H14.1186V16.471L18.8244 16.4708V12.9417C18.8244 11.3979 18.2258 9.99192 17.2495 8.94141C14.7914 11.139 11.091 11.1375 8.63472 8.94141C7.65841 9.99192 7.05974 11.3979 7.05974 12.9417V16.4711L11.7656 16.471V18.8241H4.7068V23.7021C3.0079 24.2096 1.76562 25.7859 1.76562 27.6476C1.76562 29.9181 3.61284 31.7653 5.88327 31.7653Z" fill="white"/>
<path d="M1.57498 32.4688C0.598667 33.5193 0 34.9252 0 36.4691V39.9985L11.7647 39.9982V36.4691C11.7647 34.9252 11.166 33.5193 10.1897 32.4688C7.73161 34.6664 4.03129 34.6648 1.57498 32.4688Z" fill="white"/>
<path d="M15.6922 32.4688C14.7159 33.5193 14.1172 34.9252 14.1172 36.4691V39.9985L25.8819 39.9982V36.4691C25.8819 34.9252 25.2832 33.5193 24.3069 32.4688C21.8488 34.6664 18.1485 34.6648 15.6922 32.4688Z" fill="white"/>
<path d="M38.4241 32.4688C35.966 34.6664 32.2657 34.6648 29.8094 32.4688C28.833 33.5193 28.2344 34.9252 28.2344 36.4691V39.9985L39.9991 39.9982V36.4691C39.9991 34.9252 39.4004 33.5193 38.4241 32.4688Z" fill="white"/>
<path d="M12.9458 8.23529C15.2199 8.23529 17.0634 6.39176 17.0634 4.11765C17.0634 1.84353 15.2199 0 12.9458 0C10.6717 0 8.82812 1.84353 8.82812 4.11765C8.82812 6.39176 10.6717 8.23529 12.9458 8.23529Z" fill="white"/>
<path d="M27.0551 8.23529C29.3293 8.23529 31.1728 6.39176 31.1728 4.11765C31.1728 1.84353 29.3293 0 27.0551 0C24.781 0 22.9375 1.84353 22.9375 4.11765C22.9375 6.39176 24.781 8.23529 27.0551 8.23529Z" fill="white"/>
</g>
<defs>
<clipPath id="clip0_12064_1149">
<rect width="40" height="40" fill="white"/>
</clipPath>
</defs>
</svg>
