<svg width="40" height="40" viewBox="0 0 40 40" fill="none" xmlns="http://www.w3.org/2000/svg">
<g clip-path="url(#clip0_12064_1169)">
<path d="M20 8.75C22.4141 8.75 24.375 6.78906 24.375 4.375C24.375 1.96094 22.4141 0 20 0C17.5859 0 15.625 1.96094 15.625 4.375C15.625 6.78906 17.5859 8.75 20 8.75Z" fill="white"/>
<path d="M33.75 8.8127L33.7109 8.82051L33.6797 8.82832C33.6016 8.85176 33.5234 8.8752 33.4453 8.89864C31.9922 9.32832 24.9375 11.3127 19.9609 11.3127C15.3438 11.3127 8.92188 9.59395 6.86719 9.00801C6.66406 8.92989 6.45312 8.85957 6.24219 8.80489C4.75781 8.41426 3.74219 9.92208 3.74219 11.2971C3.74219 12.6643 4.96875 13.3127 6.20312 13.7814V13.8049L13.6406 16.1252C14.3984 16.4143 14.6016 16.7111 14.7031 16.9689C15.0234 17.7971 14.7656 19.4377 14.6797 20.008L14.2266 23.5236L11.7188 37.2971C11.7109 37.3361 11.7031 37.3752 11.6953 37.4143L11.6797 37.5158C11.5 38.7736 12.4219 40.0002 14.1797 40.0002C15.7109 40.0002 16.3906 38.9455 16.6797 37.508C16.6797 37.508 18.8672 25.1955 19.9609 25.1955C21.0547 25.1955 23.3047 37.508 23.3047 37.508C23.6016 38.9455 24.2734 40.0002 25.8047 40.0002C27.5625 40.0002 28.4922 38.7736 28.3047 37.508C28.2891 37.3986 28.2656 37.2971 28.2422 37.1877L25.7031 23.5393L25.25 20.0236C24.9219 17.9768 25.1875 17.2971 25.2734 17.1408C25.2734 17.1408 25.2812 17.133 25.2812 17.1252C25.3672 16.9689 25.75 16.6174 26.6484 16.2814L33.625 13.8439C33.6641 13.8361 33.7109 13.8205 33.75 13.8049C35 13.3361 36.25 12.6877 36.25 11.3127C36.25 9.9377 35.2344 8.42207 33.75 8.8127Z" fill="white"/>
</g>
<defs>
<clipPath id="clip0_12064_1169">
<rect width="40" height="40" fill="white"/>
</clipPath>
</defs>
</svg>
