<svg width="40" height="40" viewBox="0 0 40 40" fill="none" xmlns="http://www.w3.org/2000/svg">
<path fill-rule="evenodd" clip-rule="evenodd" d="M1.83867 35.9199H38.1613C38.4855 35.9199 38.75 36.1844 38.75 36.5086V37.8879C38.75 38.2121 38.4855 38.4766 38.1613 38.4766H1.83867C1.51445 38.4766 1.25 38.2121 1.25 37.8879V36.5086C1.25 36.1844 1.51445 35.9199 1.83867 35.9199ZM35.7516 11.2981L23.8245 14.8884C23.7239 14.9187 23.6577 15.0078 23.6577 15.1128V34.8262H36.0536V11.5226C36.0535 11.3647 35.9028 11.2527 35.7516 11.2981ZM9.07422 5.16266H3.94648V34.8262H9.07422V5.16266ZM22.262 11.2981L10.3348 14.8884C10.2342 14.9187 10.168 15.0078 10.168 15.1128V34.8262H22.5639V11.5226C22.5638 11.3647 22.4131 11.2527 22.262 11.2981ZM17.8691 18.0387H20.3707C20.5004 18.0387 20.6062 18.1445 20.6062 18.2741V20.7757C20.6062 20.9054 20.5004 21.0112 20.3707 21.0112H17.8691C17.7395 21.0112 17.6337 20.9054 17.6337 20.7757V18.2741C17.6337 18.1444 17.7395 18.0387 17.8691 18.0387ZM17.8691 26.613H20.3707C20.5004 26.613 20.6062 26.7188 20.6062 26.8485V29.3502C20.6062 29.4798 20.5004 29.5856 20.3707 29.5856H17.8691C17.7395 29.5856 17.6337 29.4798 17.6337 29.3502V26.8485C17.6337 26.7188 17.7395 26.613 17.8691 26.613ZM15.0981 18.2991V20.8008C15.0981 20.9305 14.9923 21.0363 14.8627 21.0363H12.3611C12.2314 21.0363 12.1256 20.9305 12.1256 20.8008V18.2991C12.1256 18.1695 12.2314 18.0637 12.3611 18.0637H14.8627C14.9923 18.0637 15.0981 18.1694 15.0981 18.2991ZM12.361 26.638H14.8626C14.9923 26.638 15.098 26.7438 15.098 26.8735V29.3751C15.098 29.5048 14.9923 29.6105 14.8626 29.6105H12.361C12.2313 29.6105 12.1255 29.5048 12.1255 29.3751V26.8735C12.1255 26.7438 12.2313 26.638 12.361 26.638ZM31.3588 18.0387H33.8605C33.9902 18.0387 34.0959 18.1445 34.0959 18.2741V20.7757C34.0959 20.9054 33.9902 21.0112 33.8605 21.0112H31.3588C31.2291 21.0112 31.1234 20.9054 31.1234 20.7757V18.2741C31.1234 18.1444 31.2291 18.0387 31.3588 18.0387ZM31.3588 26.613H33.8605C33.9902 26.613 34.0959 26.7188 34.0959 26.8485V29.3502C34.0959 29.4798 33.9902 29.5856 33.8605 29.5856H31.3588C31.2291 29.5856 31.1234 29.4798 31.1234 29.3502V26.8485C31.1234 26.7188 31.2291 26.613 31.3588 26.613ZM25.8507 26.638H28.3523C28.482 26.638 28.5877 26.7438 28.5877 26.8735V29.3751C28.5877 29.5048 28.482 29.6105 28.3523 29.6105H25.8507C25.721 29.6105 25.6152 29.5048 25.6152 29.3751V26.8735C25.6152 26.7438 25.721 26.638 25.8507 26.638ZM25.8507 18.0637H28.3523C28.482 18.0637 28.5877 18.1695 28.5877 18.2991V20.8008C28.5877 20.9305 28.482 21.0363 28.3523 21.0363H25.8507C25.721 21.0363 25.6152 20.9305 25.6152 20.8008V18.2991C25.6152 18.1694 25.721 18.0637 25.8507 18.0637ZM9.07422 4.06898V1.56523C9.07422 1.54289 9.05469 1.52344 9.03242 1.52344H3.98828C3.96594 1.52344 3.94648 1.54289 3.94648 1.56523V4.06891L9.07422 4.06898Z" fill="white"/>
</svg>
