<svg width="44" height="44" viewBox="0 0 44 44" fill="none" xmlns="http://www.w3.org/2000/svg">
<rect width="44" height="44" rx="22" fill="white" fill-opacity="0.15"/>
<path d="M19.8738 21.2798C20.3719 21.0293 20.7484 20.7503 21.0064 20.4488C21.4654 19.9057 21.692 19.1857 21.692 18.2931C21.692 17.4245 21.4654 16.6819 21.0124 16.0594C20.2563 15.0453 18.9767 14.5263 17.1676 14.4993H10V29.13H16.683C17.4361 29.13 18.1337 29.0655 18.7787 28.9335C19.4238 28.7999 19.9818 28.5554 20.4544 28.1984C20.8744 27.8879 21.2254 27.5023 21.5044 27.0478C21.9455 26.3607 22.166 25.5822 22.166 24.7151C22.166 23.875 21.9725 23.1595 21.5885 22.5714C21.1999 21.9834 20.6299 21.5528 19.8738 21.2798ZM12.9567 17.0405H16.185C16.8946 17.0405 17.4796 17.117 17.9387 17.2685C18.4697 17.489 18.7352 17.9375 18.7352 18.6216C18.7352 19.2352 18.5327 19.6642 18.1322 19.9057C17.7286 20.1472 17.2051 20.2687 16.563 20.2687H12.9567V17.0405ZM18.0617 26.3337C17.7046 26.5063 17.2021 26.5918 16.5585 26.5918H12.9567V22.6899H16.608C17.2441 22.6944 17.7391 22.7784 18.0932 22.936C18.7232 23.221 19.0367 23.743 19.0367 24.5066C19.0367 25.4067 18.7127 26.0127 18.0617 26.3337Z" fill="white"/>
<path d="M31.692 15.1819H25.3359V17.003H31.692V15.1819Z" fill="white"/>
<path d="M33.8986 22.369C33.7666 21.5215 33.4755 20.7759 33.0225 20.1323C32.526 19.4033 31.8959 18.8692 31.1293 18.5317C30.3658 18.1927 29.5062 18.0232 28.5491 18.0247C26.9425 18.0247 25.6374 18.5272 24.6278 19.5248C23.6212 20.5254 23.1172 21.964 23.1172 23.8391C23.1172 25.8388 23.6737 27.2834 24.7928 28.17C25.9074 29.0581 27.1945 29.5006 28.6556 29.5006C30.4243 29.5006 31.7999 28.9741 32.7825 27.924C33.411 27.2609 33.7666 26.6084 33.8446 25.9678H30.9163C30.7468 26.2843 30.5503 26.5319 30.3253 26.7119C29.9172 27.0419 29.3862 27.2069 28.7351 27.2069C28.1156 27.2069 27.5906 27.0704 27.1525 26.7989C26.4295 26.3639 26.0514 25.6018 26.0034 24.5172H33.9946C34.0066 23.5826 33.9766 22.8641 33.8986 22.369ZM26.0754 22.6495C26.1804 21.946 26.4355 21.3879 26.8405 20.9754C27.2455 20.5644 27.8186 20.3574 28.5521 20.3559C29.2287 20.3559 29.7942 20.5494 30.2548 20.9379C30.7093 21.3294 30.9658 21.898 31.0183 22.6495H26.0754Z" fill="white"/>
</svg>
