<svg width="44" height="44" viewBox="0 0 44 44" fill="none" xmlns="http://www.w3.org/2000/svg">
<rect width="44" height="44" rx="22" fill="white" fill-opacity="0.15"/>
<g clip-path="url(#clip0_12064_744)">
<path d="M32.391 15.9765C31.3179 14.138 29.8623 12.6824 28.0238 11.6094C26.185 10.5364 24.1777 10 22.0004 10C19.8232 10 17.8153 10.5364 15.9768 11.6094C14.1383 12.6823 12.6827 14.1379 11.6095 15.9765C10.5364 17.8151 10 19.8231 10 22C10 24.1771 10.5366 26.1847 11.6094 28.0235C12.6824 29.8619 14.138 31.3175 15.9766 32.3907C17.8153 33.4636 19.8231 34.0001 22.0001 34.0001C24.1772 34.0001 26.1852 33.4636 28.0238 32.3907C29.8622 31.3179 31.3178 29.8619 32.3908 28.0235C33.4636 26.1849 33.9999 24.177 33.9999 22C34 19.8228 33.4636 17.8149 32.391 15.9765ZM22.0002 11.75C24.5834 11.75 26.8387 12.6042 28.7657 14.3124L28.5704 14.5857C28.4923 14.6952 28.297 14.9059 27.9846 15.2186C27.6721 15.531 27.331 15.828 26.9612 16.1092C26.5912 16.3905 26.0889 16.7108 25.4532 17.0702C24.8178 17.4296 24.1407 17.7449 23.4219 18.0157C22.224 15.8071 20.9429 13.8175 19.5783 12.0468C20.4013 11.8489 21.2086 11.75 22.0002 11.75ZM13.9691 15.6403C14.969 14.3801 16.1876 13.4112 17.6252 12.7342C18.9169 14.4529 20.1876 16.4218 21.4377 18.6405C18.271 19.4738 15.1149 19.8905 11.969 19.8904C12.3025 18.3175 12.9692 16.9007 13.9691 15.6403ZM12.4376 25.6956C11.9792 24.5238 11.75 23.2918 11.75 22C11.75 21.8541 11.7554 21.7447 11.7657 21.6719C15.5367 21.6719 19.042 21.1876 22.2816 20.2187C22.615 20.8645 22.8911 21.4426 23.1098 21.9532C23.0676 21.974 23.0004 21.9973 22.9066 22.0234C22.8125 22.0494 22.745 22.0675 22.703 22.0781L22.125 22.2812C21.729 22.4271 21.2106 22.6771 20.5702 23.0311C19.9297 23.3856 19.25 23.8073 18.5312 24.297C17.8124 24.7867 17.0702 25.4351 16.3047 26.2427C15.539 27.0499 14.8958 27.9169 14.375 28.8439C13.5416 27.9169 12.8959 26.8671 12.4376 25.6956ZM22.0002 32.2502C19.5626 32.2502 17.3855 31.4688 15.4688 29.9065L15.7032 30.0784C16.0677 29.2761 16.6041 28.5052 17.3126 27.7658C18.021 27.0263 18.7033 26.4297 19.3595 25.9764C20.0158 25.5236 20.7292 25.0966 21.5002 24.695C22.271 24.2943 22.7968 24.0388 23.0783 23.9298C23.3596 23.8204 23.5836 23.7343 23.7502 23.6717L23.7813 23.656H23.8128C24.8333 26.3331 25.5628 28.927 26.0001 31.4374C24.7085 31.9793 23.3753 32.25 22.0002 32.2502ZM30.6256 27.5392C29.8547 28.732 28.891 29.7192 27.7351 30.5002C27.3077 28.1044 26.6413 25.6614 25.7348 23.172C27.8078 22.8487 29.9379 23 32.1255 23.6248C31.8962 25.0415 31.3962 26.3465 30.6256 27.5392ZM32.094 21.8594C31.9898 21.8387 31.8595 21.8151 31.7033 21.7892C31.5471 21.7633 31.3568 21.7319 31.1328 21.6955C30.9091 21.659 30.6588 21.6253 30.3829 21.5939C30.1068 21.5627 29.8126 21.5341 29.4998 21.5081C29.1874 21.4819 28.854 21.4613 28.5001 21.4455C28.1455 21.43 27.7863 21.4221 27.4216 21.4221C27.0574 21.4221 26.6742 21.4327 26.2734 21.4534C25.8725 21.4739 25.4846 21.5108 25.1096 21.5628C25.0781 21.5106 25.0392 21.4246 24.9923 21.3048C24.9455 21.1851 24.9114 21.0938 24.8912 21.0313C24.693 20.5938 24.4638 20.0989 24.2031 19.547C24.9219 19.2551 25.607 18.9193 26.2584 18.539C26.9092 18.1587 27.4297 17.8204 27.8206 17.5236C28.2113 17.2264 28.581 16.9113 28.9299 16.578C29.279 16.2447 29.5053 16.0131 29.6098 15.8828C29.7141 15.7523 29.813 15.6248 29.9066 15.5L29.9223 15.4842C31.4431 17.3384 32.2195 19.4737 32.2503 21.8906L32.094 21.8594Z" fill="white"/>
</g>
<defs>
<clipPath id="clip0_12064_744">
<rect width="24" height="24" fill="white" transform="translate(10 10)"/>
</clipPath>
</defs>
</svg>
