<svg width="44" height="44" viewBox="0 0 44 44" fill="none" xmlns="http://www.w3.org/2000/svg">
<rect width="44" height="44" rx="22" fill="white" fill-opacity="0.15"/>
<path d="M31.5955 31.5999V24.5679C31.5955 21.1119 30.8515 18.4719 26.8195 18.4719C24.8755 18.4719 23.5795 19.5279 23.0515 20.5359H23.0035V18.7839H19.1875V31.5999H23.1715V25.2399C23.1715 23.5599 23.4835 21.9519 25.5475 21.9519C27.5875 21.9519 27.6115 23.8479 27.6115 25.3359V31.5759H31.5955V31.5999Z" fill="white"/>
<path d="M12.7109 18.7839H16.6949V31.5999H12.7109V18.7839Z" fill="white"/>
<path d="M14.7024 12.3999C13.4304 12.3999 12.3984 13.4319 12.3984 14.7039C12.3984 15.9759 13.4304 17.0319 14.7024 17.0319C15.9744 17.0319 17.0064 15.9759 17.0064 14.7039C17.0064 13.4319 15.9744 12.3999 14.7024 12.3999Z" fill="white"/>
</svg>
