<svg width="44" height="44" viewBox="0 0 44 44" fill="none" xmlns="http://www.w3.org/2000/svg">
<rect width="44" height="44" rx="22" fill="white" fill-opacity="0.15"/>
<g clip-path="url(#clip0_12064_748)">
<path d="M27.9996 10H15.9999C12.7002 10 10 12.7002 10 15.9999V28.0001C10 31.2989 12.7002 34 15.9999 34H27.9996C31.2992 34 33.9994 31.2989 33.9994 28.0001V15.9999C33.9994 12.7002 31.2992 10 27.9996 10ZM31.9994 28.0001C31.9994 30.2051 30.2057 32 27.9996 32H15.9999C13.7946 32 12 30.2051 12 28.0001V15.9999C12 13.7943 13.7946 12 15.9999 12H27.9996C30.2057 12 31.9994 13.7943 31.9994 15.9999V28.0001Z" fill="white"/>
<path d="M28.5 16.9997C29.3284 16.9997 29.9999 16.3281 29.9999 15.4997C29.9999 14.6713 29.3284 13.9998 28.5 13.9998C27.6716 13.9998 27 14.6713 27 15.4997C27 16.3281 27.6716 16.9997 28.5 16.9997Z" fill="white"/>
<path d="M21.9999 15.9998C18.6855 15.9998 16 18.6856 16 21.9996C16 25.3124 18.6855 28 21.9999 28C25.3132 28 27.9997 25.3124 27.9997 21.9996C27.9997 18.6856 25.3132 15.9998 21.9999 15.9998ZM21.9999 26C19.791 26 18 24.2091 18 21.9996C18 19.7902 19.791 17.9998 21.9999 17.9998C24.2087 17.9998 25.9997 19.7902 25.9997 21.9996C25.9997 24.2091 24.2087 26 21.9999 26Z" fill="white"/>
</g>
<defs>
<clipPath id="clip0_12064_748">
<rect width="24" height="24" fill="white" transform="translate(10 10)"/>
</clipPath>
</defs>
</svg>
