<svg width="32" height="32" viewBox="0 0 32 32" fill="none" xmlns="http://www.w3.org/2000/svg">
<path d="M16 0C7.16396 0 0 7.16396 0 16C0 24.837 7.16396 32 16 32C24.837 32 32 24.8381 32 16C32 7.16396 24.8369 0 16 0ZM16 29C8.82004 29 3.00005 23.18 3.00005 16C3.00005 8.82004 8.82004 3.00005 16 3.00005C23.18 3.00005 29 8.82004 29 16C29 23.18 23.18 29 16 29ZM16.001 7.01697C14.855 7.01697 13.988 7.61501 13.988 8.58098V17.441C13.988 18.4079 14.8549 19.004 16.001 19.004C17.119 19.004 18.0141 18.383 18.0141 17.441V8.58098C18.0139 7.63794 17.119 7.01697 16.001 7.01697ZM16.001 21C14.9 21 14.004 21.8961 14.004 22.998C14.004 24.0979 14.9 24.994 16.001 24.994C17.102 24.994 17.997 24.0979 17.997 22.998C17.9969 21.896 17.102 21 16.001 21Z" fill="#E2574C"/>
</svg>
